# File created by Blade
# Date/Time:  Thu Jan 22 19:09:08 2015
#---------------------------------------------------------
:version 1.10
:name HOM
:units
  mass 1.0
  length 1.000000
  angle deg
:documentation
     Acclaim Skeleton File
:root
   axis xyz
   order TX TY TZ RX RY RZ
   position 0.000000 0.000000 0.000000
   orientation 0 0 0
:bonedata
   begin
      id 1
      name RightUpLeg_dum
      direction -1.000000 0.000000 0.000000
      length 4.478084
      axis 0.0 0.0 0.0 xyz
   end
   begin
      id 2
      name LeftUpLeg_dum
      direction 1.000000 0.000000 0.000000
      length 4.478084
      axis 0.0 0.0 0.0 xyz
   end
   begin
      id 3
      name Spine_dum
      direction 0.000000 1.000000 0.000000
      length 6.068208
      axis 0.0 0.0 0.0 xyz
   end
   begin
      id 4
      name RightUpLeg
      direction 0.000000 -1.000000 0.000000
      length 16.405774
      axis 0.0 0.0 0.0 xyz
      dof rx ry rz
   end
   begin
      id 5
      name RightLeg
      direction 0.000000 -1.000000 0.000000
      length 14.644143
      axis 0.0 0.0 0.0 xyz
      dof rx ry rz
   end
   begin
      id 6
      name RightFoot
      direction 0.000000 -0.258819 0.965926
      length 5.806150
      axis 15.0 0.0 0.0 xyz
      dof rx ry rz
   end
   begin
      id 7
      name RightToeBase
      direction 0.000000 0.000000 1.000000
      length 2.952750
      axis 0.0 0.0 0.0 xyz
      dof rx ry rz
   end
   begin
      id 8
      name LeftUpLeg
      direction 0.000000 -1.000000 0.000000
      length 16.405774
      axis 0.0 0.0 0.0 xyz
      dof rx ry rz
   end
   begin
      id 9
      name LeftLeg
      direction 0.000000 -1.000000 0.000000
      length 14.644143
      axis 0.0 0.0 0.0 xyz
      dof rx ry rz
   end
   begin
      id 10
      name LeftFoot
      direction 0.000000 -0.258819 0.965926
      length 5.806150
      axis 15.0 0.0 0.0 xyz
      dof rx ry rz
   end
   begin
      id 11
      name LeftToeBase
      direction 0.000000 0.000000 1.000000
      length 2.952750
      axis 0.0 0.0 0.0 xyz
      dof rx ry rz
   end
   begin
      id 12
      name Spine
      direction 0.000000 1.000000 0.000000
      length 0.000000
      axis 0.0 0.0 0.0 xyz
      dof rx ry rz
   end
   begin
      id 13
      name Spine_dum1
      direction 0.000000 1.000000 0.000000
      length 10.013923
      axis 0.0 0.0 0.0 xyz
   end
   begin
      id 14
      name Spine_dum2
      direction 0.000000 1.000000 0.000000
      length 10.013923
      axis 0.0 0.0 0.0 xyz
   end
   begin
      id 15
      name Spine_dum3
      direction 0.000000 1.000000 0.000000
      length 15.777476
      axis 0.0 0.0 0.0 xyz
   end
   begin
      id 16
      name RightShoulder
      direction -1.000000 0.000000 0.000000
      length 7.190220
      axis 0.0 0.0 90.0 xyz
      dof rx ry rz
   end
   begin
      id 17
      name RightArm
      direction -1.000000 0.000000 0.000000
      length 10.177469
      axis 0.0 0.0 90.0 xyz
      dof rx ry rz
   end
   begin
      id 18
      name RightForeArm
      direction -1.000000 0.000000 0.000000
      length 8.392114
      axis 0.0 0.0 90.0 xyz
      dof ry rz rx
   end
   begin
      id 19
      name RightHand
      direction -1.000000 0.000000 0.000000
      length 0.000000
      axis 0.0 0.0 90.0 xyz
      dof rx ry rz
   end
   begin
      id 20
      name RightHand_dum1
      direction -1.000000 0.000000 0.000000
      length 3.937000
      axis 0.0 0.0 90.0 xyz
   end
   begin
      id 21
      name RightHand_dum2
      direction 0.000000 0.000000 0.000000
      length 0.000000
      axis 0.0 0.0 90.0 xyz
   end
   begin
      id 22
      name RightHandThumb1
      direction 0.000000 0.000000 1.000000
      length 3.937000
      axis 0.0 0.0 90.0 xyz
      dof rx rz ry
   end
   begin
      id 23
      name LeftShoulder
      direction 1.000000 0.000000 0.000000
      length 7.190220
      axis 0.0 0.0 -90.0 xyz
      dof rx ry rz
   end
   begin
      id 24
      name LeftArm
      direction 1.000000 0.000000 0.000000
      length 10.177469
      axis 0.0 0.0 -90.0 xyz
      dof rx ry rz
   end
   begin
      id 25
      name LeftForeArm
      direction 1.000000 0.000000 0.000000
      length 8.392114
      axis 0.0 0.0 -90.0 xyz
      dof ry rz rx
   end
   begin
      id 26
      name LeftHand
      direction 1.000000 0.000000 0.000000
      length 0.000000
      axis 0.0 0.0 -90.0 xyz
      dof rx ry rz
   end
   begin
      id 27
      name LeftHand_dum1
      direction 1.000000 0.000000 0.000000
      length 3.937000
      axis 0.0 0.0 -90.0 xyz
   end
   begin
      id 28
      name LeftHand_dum2
      direction 0.000000 0.000000 0.000000
      length 0.000000
      axis 0.0 0.0 -90.0 xyz
   end
   begin
      id 29
      name LeftHandThumb1
      direction 0.000000 0.000000 1.000000
      length 3.937000
      axis 0.0 0.0 -90.0 xyz
      dof rx rz ry
   end
   begin
      id 30
      name Head
      direction 0.000000 1.000000 0.000000
      length 4.527550
      axis 0.0 0.0 0.0 xyz
      dof rx ry rz
   end
:hierarchy
   begin
      root RightUpLeg_dum LeftUpLeg_dum Spine_dum
      RightUpLeg_dum RightUpLeg
      LeftUpLeg_dum LeftUpLeg
      Spine_dum Spine
      RightUpLeg RightLeg
      RightLeg RightFoot
      RightFoot RightToeBase
      LeftUpLeg LeftLeg
      LeftLeg LeftFoot
      LeftFoot LeftToeBase
      Spine Spine_dum1 Spine_dum2 Spine_dum3
      Spine_dum1 RightShoulder
      Spine_dum2 LeftShoulder
      Spine_dum3 Head
      RightShoulder RightArm
      RightArm RightForeArm
      RightForeArm RightHand
      RightHand RightHand_dum1 RightHand_dum2
      RightHand_dum2 RightHandThumb1
      LeftShoulder LeftArm
      LeftArm LeftForeArm
      LeftForeArm LeftHand
      LeftHand LeftHand_dum1 LeftHand_dum2
      LeftHand_dum2 LeftHandThumb1
   end

# File created by Blade
# Date/Time:  Thu Jan 22 19:08:58 2015
# Frame Rate: 120.000 fps
#------------------------------------------------------
:FULLY-SPECIFIED
:DEGREES
115
root -2.758057 33.094469 -0.385319 8.584421 -4.992487 2.010106
RightUpLeg -2.993288 -5.144876 -2.035486
RightLeg 0.287953 -0.000000 -0.000000
RightFoot -11.368305 -0.551750 4.321125
RightToeBase 4.833340 -0.000000 -0.000000
LeftUpLeg -2.020766 6.422823 2.508470
LeftLeg 2.252685 -0.000000 -0.000000
LeftFoot -11.715164 2.218711 -11.321181
LeftToeBase 6.839468 -0.000000 -0.000000
Spine -8.994032 -2.275430 -0.791510
RightShoulder -20.349683 -16.967745 -26.537819
RightArm 18.822976 31.264034 38.808475
RightForeArm -10.078370 -0.000000 9.537467
RightHand 9.840361 0.000000 12.897915
RightHandThumb1 -24.326973 -0.000000 -32.862282
LeftShoulder -24.927701 9.124027 30.540955
LeftArm 13.165723 -28.329194 -31.824206
LeftForeArm 23.668546 -0.000000 0.502729
LeftHand -2.519453 -0.000000 -10.674448
LeftHandThumb1 -26.253704 0.000000 33.147579
Head -4.373995 5.556301 -1.631900
116
root -2.759546 33.095209 -0.391175 8.605796 -4.999060 2.014035
RightUpLeg -3.041075 -5.171377 -2.032250
RightLeg 0.315824 -0.000000 -0.000000
RightFoot -11.368922 -0.525611 4.291926
RightToeBase 4.797157 -0.000000 -0.000000
LeftUpLeg -2.091075 6.388441 2.494811
LeftLeg 2.330679 -0.000000 -0.000000
LeftFoot -11.744227 2.279928 -11.223631
LeftToeBase 6.779509 -0.000000 -0.000000
Spine -9.005275 -2.277628 -0.793372
RightShoulder -20.353874 -16.979088 -26.513506
RightArm 18.820420 31.285447 38.809430
RightForeArm -10.088965 -0.000000 9.541844
RightHand 9.808269 -0.000000 12.918411
RightHandThumb1 -24.326973 -0.000000 -32.862282
LeftShoulder -24.928892 9.131916 30.537523
LeftArm 13.164713 -28.290618 -31.846592
LeftForeArm 23.651936 0.000000 0.553271
LeftHand -2.563316 -0.000000 -10.677185
LeftHandThumb1 -26.253704 0.000000 33.147579
Head -4.393645 5.616215 -1.686766
117
root -2.760028 33.095749 -0.396635 8.622917 -5.001402 2.017604
RightUpLeg -3.075689 -5.185146 -2.031779
RightLeg 0.327267 -0.000000 -0.000000
RightFoot -11.360423 -0.524379 4.270732
RightToeBase 4.789254 -0.000000 -0.000000
LeftUpLeg -2.159400 6.342543 2.482836
LeftLeg 2.412699 -0.000000 -0.000000
LeftFoot -11.779765 2.329431 -11.121425
LeftToeBase 6.658660 -0.000000 -0.000000
Spine -9.013715 -2.293329 -0.777289
RightShoulder -20.339571 -16.966671 -26.521634
RightArm 18.801402 31.256648 38.801569
RightForeArm -10.052913 -0.000000 9.544743
RightHand 9.755402 -0.000000 12.822800
RightHandThumb1 -24.326973 -0.000000 -32.862282
LeftShoulder -24.939663 9.156554 30.504426
LeftArm 13.177424 -28.287413 -31.871999
LeftForeArm 23.679287 -0.000000 0.596376
LeftHand -2.559914 0.000000 -10.690523
LeftHandThumb1 -26.253704 0.000000 33.147579
Head -4.409890 5.682479 -1.759554
118
root -2.761062 33.096231 -0.404061 8.656067 -5.002322 2.021736
RightUpLeg -3.137280 -5.220318 -2.026386
RightLeg 0.354647 -0.000000 -0.000000
RightFoot -11.354803 -0.504980 4.246226
RightToeBase 4.705381 -0.000000 -0.000000
LeftUpLeg -2.257920 6.287069 2.466585
LeftLeg 2.517275 -0.000000 -0.000000
LeftFoot -11.837090 2.404877 -10.970387
LeftToeBase 6.531814 -0.000000 -0.000000
Spine -9.030237 -2.302670 -0.769773
RightShoulder -20.344323 -16.980058 -26.519310
RightArm 18.807022 31.299471 38.840678
RightForeArm -10.101668 -0.000000 9.546442
RightHand 9.753764 -0.000000 12.852440
RightHandThumb1 -24.326973 -0.000000 -32.862282
LeftShoulder -24.947322 9.168428 30.484523
LeftArm 13.180183 -28.258664 -31.893701
LeftForeArm 23.680023 -0.000000 0.642595
LeftHand -2.524520 -0.000000 -10.702217
LeftHandThumb1 -26.253704 0.000000 33.147579
Head -4.447376 5.735386 -1.824106
119
root -2.761709 33.096714 -0.410675 8.681532 -5.004337 2.024218
RightUpLeg -3.183787 -5.249886 -2.020052
RightLeg 0.372330 -0.000000 -0.000000
RightFoot -11.355682 -0.487984 4.248490
RightToeBase 4.755640 -0.000000 -0.000000
LeftUpLeg -2.345309 6.197364 2.453153
LeftLeg 2.625258 -0.000000 -0.000000
LeftFoot -11.908605 2.505294 -10.821260
LeftToeBase 6.411735 -0.000000 -0.000000
Spine -9.041147 -2.314999 -0.754570
RightShoulder -20.325307 -16.962695 -26.534902
RightArm 18.778628 31.315115 38.860097
RightForeArm -10.142064 -0.000000 9.562906
RightHand 9.730265 -0.000000 12.831362
RightHandThumb1 -24.326973 -0.000000 -32.862282
LeftShoulder -24.942466 9.158033 30.469763
LeftArm 13.138896 -28.206336 -31.896225
LeftForeArm 23.692884 0.000000 0.694374
LeftHand -2.481404 -0.000000 -10.703541
LeftHandThumb1 -26.253704 0.000000 33.147579
Head -4.477919 5.798047 -1.909219
120
root -2.761665 33.097613 -0.417329 8.699850 -5.009902 2.024913
RightUpLeg -3.228791 -5.286448 -2.015091
RightLeg 0.399770 -0.000000 -0.000000
RightFoot -11.344397 -0.453853 4.227246
RightToeBase 4.719463 -0.000000 -0.000000
LeftUpLeg -2.432280 6.127711 2.439062
LeftLeg 2.753502 -0.000000 -0.000000
LeftFoot -11.996016 2.588037 -10.591800
LeftToeBase 6.092343 -0.000000 -0.000000
Spine -9.040303 -2.343386 -0.729953
RightShoulder -20.287755 -16.945732 -26.552087
RightArm 18.756766 31.293970 38.859118
RightForeArm -10.123157 -0.000000 9.562694
RightHand 9.735182 -0.000000 12.816326
RightHandThumb1 -24.326973 -0.000000 -32.862282
LeftShoulder -24.971063 9.193811 30.429484
LeftArm 13.144150 -28.174068 -31.923437
LeftForeArm 23.704188 0.000000 0.725622
LeftHand -2.447036 -0.000000 -10.645014
LeftHandThumb1 -26.253704 0.000000 33.147579
Head -4.519194 5.862318 -1.986193
121
root -2.761837 33.098710 -0.424942 8.740031 -5.005284 2.028777
RightUpLeg -3.296128 -5.340057 -2.008542
RightLeg 0.426599 -0.000000 -0.000000
RightFoot -11.332649 -0.441907 4.198711
RightToeBase 4.647934 -0.000000 -0.000000
LeftUpLeg -2.556905 6.057310 2.418165
LeftLeg 2.913383 -0.000000 -0.000000
LeftFoot -12.117552 2.657308 -10.312094
LeftToeBase 5.634734 -0.000000 -0.000000
Spine -9.063765 -2.360789 -0.710169
RightShoulder -20.270376 -16.926638 -26.556927
RightArm 18.736187 31.266653 38.844436
RightForeArm -10.145266 -0.000000 9.573981
RightHand 9.678195 -0.000000 12.777559
RightHandThumb1 -24.326973 -0.000000 -32.862282
LeftShoulder -24.976213 9.203248 30.398081
LeftArm 13.127713 -28.135903 -31.937842
LeftForeArm 23.703702 -0.000000 0.756271
LeftHand -2.406143 -0.000000 -10.586563
LeftHandThumb1 -26.253704 0.000000 33.147579
Head -4.552959 5.911320 -2.088094
122
root -2.760655 33.100132 -0.432612 8.778823 -5.012188 2.038616
RightUpLeg -3.371601 -5.385002 -2.010506
RightLeg 0.465993 -0.000000 -0.000000
RightFoot -11.330434 -0.426305 4.165033
RightToeBase 4.612369 -0.000000 -0.000000
LeftUpLeg -2.677628 5.988858 2.384352
LeftLeg 3.078181 -0.000000 -0.000000
LeftFoot -12.254320 2.737536 -9.919724
LeftToeBase 4.942396 -0.000000 -0.000000
Spine -9.079244 -2.378273 -0.688910
RightShoulder -20.250572 -16.925190 -26.583323
RightArm 18.742209 31.259595 38.879368
RightForeArm -10.149122 0.000000 9.580143
RightHand 9.694859 -0.000000 12.797892
RightHandThumb1 -24.326973 -0.000000 -32.862282
LeftShoulder -25.006451 9.223628 30.343637
LeftArm 13.133958 -28.099305 -31.949324
LeftForeArm 23.676054 -0.000000 0.774216
LeftHand -2.380625 -0.000000 -10.594030
LeftHandThumb1 -26.253704 0.000000 33.147579
Head -4.616382 6.125964 -2.211470
123
root -2.760502 33.101520 -0.440263 8.824202 -5.007093 2.043064
RightUpLeg -3.446320 -5.465010 -2.003286
RightLeg 0.496341 -0.000000 -0.000000
RightFoot -11.323717 -0.380143 4.134695
RightToeBase 4.644480 -0.000000 -0.000000
LeftUpLeg -2.807695 5.912250 2.358792
LeftLeg 3.254589 -0.000000 -0.000000
LeftFoot -12.415152 2.811530 -9.510954
LeftToeBase 4.213206 -0.000000 -0.000000
Spine -9.103868 -2.395669 -0.668212
RightShoulder -20.223733 -16.914914 -26.608742
RightArm 18.718887 31.239603 38.896890
RightForeArm -10.177447 -0.000000 9.594219
RightHand 9.715019 -0.000000 12.812832
RightHandThumb1 -24.326973 -0.000000 -32.862282
LeftShoulder -25.021710 9.246913 30.306927
LeftArm 13.134635 -28.049780 -31.972897
LeftForeArm 23.634307 -0.000000 0.782078
LeftHand -2.358444 -0.000000 -10.547621
LeftHandThumb1 -26.253704 0.000000 33.147579
Head -4.667368 6.171030 -2.300431
